<svg width="404" height="112" viewBox="0 0 404 112" fill="none" xmlns="http://www.w3.org/2000/svg">
<path d="M53.785 96.9408C76.7413 96.9408 95.351 78.3311 95.351 55.3749C95.351 32.4187 76.7413 13.809 53.785 13.809C30.8288 13.809 12.2191 32.4187 12.2191 55.3749C12.2191 78.3311 30.8288 96.9408 53.785 96.9408Z" fill="black" stroke="black" stroke-miterlimit="10"/>
<path d="M72.4741 64.0823C72.4741 59.0395 69.7565 55.6107 65.5198 54.1797C68.6159 52.4583 70.5732 49.371 70.5732 45.3614C70.5732 39.4244 66.1288 35.3602 57.4988 34.9835V31.5107H53.5807V34.943H50.1871V31.5107H46.2726V34.943H45.396H37.5651H33.4147V41.9291H37.5651V68.0268H33.4147V75.0093H37.5651H45.396H46.2726V78.3818H50.1871V75.0111H53.5807V78.3818H57.4988V75.004C67.3363 74.9389 72.4741 70.9487 72.4741 64.0823ZM61.7108 46.6216C61.7108 49.7688 59.3716 51.3723 55.0768 51.3723H46.3201V41.9308H55.0768C59.3716 41.9308 61.7108 43.4745 61.7108 46.6216ZM56.6029 68.0286H46.3218V58.1277H56.6029C61.1652 58.1277 63.6136 59.7295 63.6136 63.1054C63.6136 66.5412 61.1652 68.0286 56.6029 68.0286Z" fill="white"/>
<path d="M52.9472 99.8961C28.1625 99.8961 8 79.7336 8 54.9489C8 30.1643 28.1625 10 52.9472 10C77.7336 10 97.8944 30.1643 97.8944 54.9489C97.8944 79.7336 77.7301 99.8961 52.9472 99.8961ZM52.9472 17.9189C32.5294 17.9189 15.9189 34.5312 15.9189 54.9489C15.9189 75.3667 32.5312 91.9772 52.9472 91.9772C73.3632 91.9772 89.9754 75.3649 89.9754 54.9489C89.9754 34.5294 73.3614 17.9189 52.9472 17.9189Z" fill="url(#paint0_linear_126_530)"/>
<path d="M108.064 73.8512L111.364 73.6241C111.486 73.6241 111.611 73.4763 111.611 73.251L111.671 37.9899L108.002 37.7663C108.002 35.8231 108.062 33.5825 108.125 31.5653C111.238 31.4914 117.395 31.3418 120.943 31.3418C126.978 31.3418 131.459 31.3418 135.068 33.285C137.868 34.8533 140.356 38.7379 140.356 42.5487C140.356 47.6302 137.121 51.5888 133.137 53.3806V53.9791C138.364 55.0246 142.535 59.8052 142.535 66.0819C142.535 73.9269 136.124 80.0522 125.424 80.0522C123.432 80.0522 117.956 79.9783 116.713 79.9783C114.594 79.9783 110.429 79.9783 108 79.9783C108.003 78.0333 108.003 75.7909 108.064 73.8512ZM121.818 72.1297C121.818 73.7755 123.124 74.1469 124.556 74.1469C128.535 74.1469 131.586 71.5348 131.586 66.5272C131.586 62.3415 128.6 58.309 123.559 58.309C122.935 58.309 122.065 58.309 121.941 58.383L121.818 72.1297ZM121.941 52.2594C122.127 52.3333 123.062 52.3333 123.495 52.3333C127.416 52.3333 130.216 49.3446 130.216 44.7119C130.216 40.7516 127.667 37.1644 124.119 37.1644C123.062 37.1644 122.44 37.2401 122.003 37.3879L121.941 52.2594Z" fill="black"/>
<path d="M146.394 54.7254C146.394 52.7083 146.456 50.3902 146.516 48.3731C149.877 48.0756 159.959 46.3559 160.456 46.3559C160.58 46.3559 160.58 46.4298 160.58 46.5795C160.52 54.648 160.393 66.1541 160.393 73.6242L163.816 73.7755C163.816 75.8666 163.816 77.9576 163.816 79.9748C161.453 79.9748 157.905 79.9748 155.231 79.9748C152.618 79.9748 149.32 80.0487 146.77 80.0487C146.77 78.0316 146.77 75.7909 146.832 73.8512L150.128 73.6998C150.315 73.6242 150.377 73.4763 150.377 73.3267V54.9472L146.394 54.7254ZM160.393 35.2247C160.393 39.259 157.656 41.9485 154.545 41.9485C151.867 41.9485 149.132 39.1851 149.132 35.3761C149.132 32.2378 151.435 29.1733 154.856 29.1733C158.466 29.1716 160.393 32.0864 160.393 35.2247Z" fill="black"/>
<path d="M172.464 78.4839C170.472 76.3911 170.286 74.6715 170.286 72.5804C170.286 68.3965 170.348 64.5858 170.348 63.6881C170.348 62.1198 170.41 54.8733 170.41 53.9017C169.353 53.9017 167.61 53.9017 166.056 53.9017C166.056 51.8106 166.116 49.57 166.242 47.5528C167.548 47.405 169.042 47.2554 170.284 47.1058C170.534 47.1058 170.721 46.8822 170.721 46.5073C170.907 44.5641 171.03 42.0999 171.219 40.3081C174.329 38.4388 180.304 36.3477 180.489 36.3477C180.613 36.3477 180.677 36.4216 180.677 36.6452C180.613 38.2892 180.551 45.0886 180.489 47.1058C183.664 47.1058 187.146 47.1058 190.072 47.0318C190.072 49.1986 190.01 51.7385 189.824 53.9791C187.212 53.9791 183.353 53.9034 180.491 53.9034C180.491 54.5776 180.429 56.0684 180.429 60.1766C180.429 63.2393 180.429 66.1541 180.429 69.5177C180.429 71.6106 181.923 72.8796 183.293 72.8796C185.78 72.8796 188.145 72.3569 190.073 71.7566C190.385 73.7755 190.634 76.0919 190.759 78.0333C186.464 80.0505 181.923 80.7229 177.318 80.7229C175.638 80.7229 174.083 80.1983 172.464 78.4839Z" fill="black"/>
<path d="M211.229 46.356C213.471 46.356 216.644 47.104 218.137 48.1478C218.137 50.4624 216.207 55.6935 214.964 56.5173C214.155 56.1424 210.982 54.2766 208.491 54.2766C207.121 54.2766 205.942 54.7994 205.007 56.5912C204.074 58.5344 203.763 60.7751 203.763 64.1352C203.763 67.7224 204.571 69.7395 205.693 71.3078C206.748 72.8022 208.615 73.1014 209.863 73.1014C212.35 73.1014 215.212 71.982 217.079 71.0843C217.515 73.0275 218.014 75.2664 218.261 77.0618C214.218 79.6756 209.302 80.7229 206.752 80.7229C199.099 80.7229 193.25 75.0446 193.25 65.8549C193.248 55.2447 200.217 46.356 211.229 46.356Z" fill="black"/>
<path d="M225.231 77.1357C222.367 74.2226 220.626 70.1866 220.626 64.4345C220.626 58.5327 222.804 53.2293 226.537 49.9431C229.275 47.4789 233.01 46.356 236.742 46.356C240.039 46.356 242.84 47.2536 245.266 49.0455C248.439 51.5114 250.866 56.2181 250.866 62.8679C250.866 69.4403 247.878 75.0464 244.209 77.882C241.782 79.7513 238.671 80.7229 235.124 80.7229C231.45 80.7229 227.718 79.6756 225.231 77.1357ZM238.609 73.1014C239.79 71.16 240.102 68.1712 240.102 63.1654C240.102 58.6084 239.602 56.292 238.982 54.4984C238.296 52.9284 237.177 52.1838 236.058 52.1838C234.937 52.1838 233.942 52.7066 233.132 54.0531C232.136 55.8449 231.517 58.684 231.517 63.2393C231.517 68.7697 232.077 71.3096 232.945 72.8797C233.756 74.374 234.688 74.8968 235.809 74.8968C236.866 74.895 237.861 74.5201 238.609 73.1014Z" fill="black"/>
<path d="M254.35 54.7254C254.35 52.7083 254.41 50.3902 254.474 48.3731C257.834 48.0756 267.914 46.3559 268.414 46.3559C268.536 46.3559 268.536 46.4298 268.536 46.5795C268.474 54.648 268.349 66.1541 268.349 73.6242L271.772 73.7755C271.772 75.8666 271.772 77.9576 271.772 79.9748C269.409 79.9748 265.861 79.9748 263.187 79.9748C260.572 79.9748 257.274 80.0487 254.725 80.0487C254.725 78.0316 254.725 75.7909 254.785 73.8512L258.083 73.6998C258.269 73.6242 258.331 73.4763 258.331 73.3267V54.9472L254.35 54.7254ZM268.349 35.2247C268.349 39.259 265.612 41.9485 262.503 41.9485C259.825 41.9485 257.088 39.1851 257.088 35.3761C257.088 32.2378 259.39 29.1733 262.812 29.1733C266.42 29.1716 268.349 32.0864 268.349 35.2247Z" fill="black"/>
<path d="M274.573 54.7254C274.573 52.6325 274.631 50.464 274.631 48.5983C277.744 48.3008 286.952 46.4315 287.328 46.4315C287.45 46.4315 287.45 46.5072 287.45 46.5811C287.76 48.1494 288.011 49.7195 288.322 51.2878L288.633 51.3617C294.668 46.8804 296.038 46.3576 298.898 46.3576C301.574 46.3576 304.125 49.1967 305.369 51.7366C306.554 54.053 306.803 56.3693 306.803 58.3847C306.803 62.6425 306.615 68.8435 306.554 73.6241L309.665 73.7755C309.665 75.7926 309.665 78.0333 309.603 79.9747C307.239 79.9747 304.192 79.9747 301.574 79.9747C298.898 79.9747 295.976 80.0486 293.798 80.0486C293.798 78.0315 293.798 75.7908 293.86 73.8511L296.349 73.6998C296.473 73.6241 296.536 73.5502 296.598 73.3266C296.658 70.3379 296.598 66.154 296.598 63.2392C296.536 59.8034 296.536 58.0098 296.098 56.8921C295.477 55.4699 294.668 55.2464 293.734 55.2464C292.366 55.2464 290.25 56.4433 288.757 57.8602C288.693 62.1937 288.569 69.3663 288.569 73.6241L291.247 73.8511C291.247 75.8683 291.247 78.0333 291.184 79.9747C289.006 79.9747 285.896 79.9747 283.407 79.9747C280.793 79.9747 277.62 80.0486 275.193 80.0486C275.193 78.0315 275.193 75.7908 275.257 73.8511L278.303 73.6998C278.49 73.6241 278.553 73.4762 278.553 73.3266V54.8732L274.573 54.7254Z" fill="black"/>
<path d="M349.549 37.9899C347.869 43.4429 345.755 50.5398 343.701 56.5912C341.334 63.7638 338.473 72.9518 335.796 80.5715C335.176 80.7228 331.815 80.7228 327.084 80.7228C324.658 72.8778 321.92 63.8377 319.866 56.0667C318.372 50.3145 316.633 43.8899 315.199 38.2117C315.199 38.0638 315.077 37.9142 314.892 37.9142L311.842 37.7646C311.842 35.6736 311.903 33.4311 311.903 31.414C314.206 31.414 317.628 31.414 320.304 31.414C324.038 31.414 328.455 31.414 331.752 31.414C331.752 33.3572 331.752 35.7475 331.69 37.7646L327.457 37.9882C328.08 41.1987 329.45 48.5948 330.007 51.1365C331.128 56.218 332.249 61.6692 333.68 67.6484H334.115C335.363 63.0157 336.295 59.205 337.165 55.6935C338.16 51.5853 340.649 42.0981 341.207 38.3613C341.207 38.2117 341.146 37.9899 341.022 37.9899L337.414 37.8403C337.35 35.7475 337.414 33.359 337.414 31.414C340.088 31.414 343.511 31.414 346.746 31.414C348.736 31.414 350.976 31.414 352.842 31.414C352.842 33.4311 352.842 35.6736 352.782 37.7646L349.549 37.9899Z" fill="black"/>
<path d="M356.206 73.8512L359.503 73.6241C359.628 73.6241 359.752 73.4763 359.752 73.251L359.816 37.9899L356.144 37.7663C356.144 35.8231 356.204 33.5825 356.268 31.5653C359.377 31.4914 365.538 31.3418 369.084 31.3418C375.12 31.3418 379.6 31.3418 383.211 33.285C386.009 34.8533 388.498 38.7379 388.498 42.5487C388.498 47.6302 385.263 51.5888 381.281 53.3806V53.9791C386.506 55.0246 390.674 59.8052 390.674 66.0819C390.674 73.9269 384.267 80.0522 373.567 80.0522C371.573 80.0522 366.1 79.9783 364.854 79.9783C362.738 79.9783 358.57 79.9783 356.143 79.9783C356.146 78.0333 356.146 75.7909 356.206 73.8512ZM369.959 72.1297C369.959 73.7755 371.263 74.1469 372.695 74.1469C376.678 74.1469 379.725 71.5348 379.725 66.5272C379.725 62.3415 376.738 58.309 371.701 58.309C371.078 58.309 370.206 58.309 370.081 58.383L369.959 72.1297ZM370.082 52.2594C370.268 52.3333 371.203 52.3333 371.638 52.3333C375.559 52.3333 378.359 49.3446 378.359 44.7119C378.359 40.7516 375.808 37.1644 372.263 37.1644C371.203 37.1644 370.581 37.2401 370.146 37.3879L370.082 52.2594Z" fill="black"/>
<path d="M344.262 34.6492H363.029" stroke="black" stroke-width="4.5" stroke-miterlimit="10"/>
<defs>
<linearGradient id="paint0_linear_126_530" x1="8.00088" y1="54.9482" x2="97.8958" y2="54.9482" gradientUnits="userSpaceOnUse">
<stop stop-color="#F5CF32"/>
<stop offset="1" stop-color="#F2AA34"/>
</linearGradient>
</defs>
</svg>
