<svg width="404" height="112" viewBox="0 0 404 112" fill="none" xmlns="http://www.w3.org/2000/svg">
<path d="M72.4743 64.0823C72.4743 59.0395 69.7566 55.6107 65.5199 54.1797C68.616 52.4583 70.5733 49.371 70.5733 45.3614C70.5733 39.4244 66.1289 35.3602 57.4989 34.9835V31.5107H53.5808V34.943H50.1873V31.5107H46.2727V34.943H45.3961H37.5652H33.4148V41.9291H37.5652V68.0268H33.4148V75.0093H37.5652H45.3961H46.2727V78.3818H50.1873V75.0111H53.5808V78.3818H57.4989V75.004C67.3364 74.9389 72.4743 70.9487 72.4743 64.0823ZM61.711 46.6216C61.711 49.7688 59.3717 51.3723 55.077 51.3723H46.3202V41.9308H55.077C59.3717 41.9308 61.711 43.4745 61.711 46.6216ZM56.603 68.0286H46.322V58.1277H56.603C61.1653 58.1277 63.6137 59.7295 63.6137 63.1054C63.6137 66.5412 61.1653 68.0286 56.603 68.0286Z" fill="white"/>
<path d="M52.9472 99.8961C28.1625 99.8961 8 79.7336 8 54.9489C8 30.1643 28.1625 10 52.9472 10C77.7336 10 97.8944 30.1643 97.8944 54.9489C97.8944 79.7336 77.7301 99.8961 52.9472 99.8961ZM52.9472 17.9189C32.5294 17.9189 15.9189 34.5312 15.9189 54.9489C15.9189 75.3667 32.5312 91.9772 52.9472 91.9772C73.3632 91.9772 89.9754 75.3649 89.9754 54.9489C89.9754 34.5294 73.3614 17.9189 52.9472 17.9189Z" fill="url(#paint0_linear_233_675)"/>
<path d="M108.064 73.6778L111.364 73.4508C111.486 73.4508 111.611 73.3029 111.611 73.0776L111.671 37.8165L108.002 37.593C108.002 35.6498 108.062 33.4091 108.125 31.392C111.238 31.3181 117.395 31.1685 120.943 31.1685C126.978 31.1685 131.459 31.1685 135.068 33.1117C137.868 34.68 140.356 38.5646 140.356 42.3753C140.356 47.4569 137.121 51.4155 133.137 53.2073V53.8057C138.364 54.8513 142.535 59.6318 142.535 65.9085C142.535 73.7535 136.124 79.8788 125.424 79.8788C123.432 79.8788 117.956 79.8049 116.713 79.8049C114.594 79.8049 110.429 79.8049 108 79.8049C108.003 77.8599 108.003 75.6175 108.064 73.6778ZM121.818 71.9564C121.818 73.6021 123.124 73.9735 124.556 73.9735C128.535 73.9735 131.586 71.3615 131.586 66.3538C131.586 62.1682 128.6 58.1357 123.559 58.1357C122.935 58.1357 122.065 58.1357 121.941 58.2096L121.818 71.9564ZM121.941 52.0861C122.127 52.16 123.062 52.16 123.495 52.16C127.416 52.16 130.216 49.1713 130.216 44.5386C130.216 40.5782 127.667 36.991 124.119 36.991C123.062 36.991 122.44 37.0667 122.003 37.2146L121.941 52.0861Z" fill="white"/>
<path d="M146.394 54.5521C146.394 52.535 146.456 50.2168 146.516 48.1997C149.877 47.9022 159.959 46.1826 160.456 46.1826C160.58 46.1826 160.58 46.2565 160.58 46.4061C160.52 54.4746 160.392 65.9807 160.392 73.4508L163.816 73.6022C163.816 75.6932 163.816 77.7843 163.816 79.8014C161.453 79.8014 157.905 79.8014 155.231 79.8014C152.618 79.8014 149.319 79.8754 146.77 79.8754C146.77 77.8582 146.77 75.6176 146.832 73.6779L150.127 73.5265C150.315 73.4508 150.377 73.303 150.377 73.1534V54.7739L146.394 54.5521ZM160.392 35.0514C160.392 39.0857 157.656 41.7752 154.545 41.7752C151.867 41.7752 149.132 39.0117 149.132 35.2028C149.132 32.0644 151.435 29 154.856 29C158.466 28.9982 160.392 31.9131 160.392 35.0514Z" fill="white"/>
<path d="M172.464 78.3106C170.472 76.2178 170.286 74.4981 170.286 72.4071C170.286 68.2232 170.348 64.4125 170.348 63.5148C170.348 61.9465 170.41 54.6999 170.41 53.7283C169.353 53.7283 167.61 53.7283 166.056 53.7283C166.056 51.6373 166.116 49.3966 166.242 47.3795C167.548 47.2316 169.042 47.082 170.284 46.9324C170.534 46.9324 170.721 46.7089 170.721 46.334C170.907 44.3908 171.03 41.9265 171.219 40.1347C174.329 38.2654 180.304 36.1744 180.489 36.1744C180.613 36.1744 180.677 36.2483 180.677 36.4718C180.613 38.1158 180.551 44.9153 180.489 46.9324C183.664 46.9324 187.146 46.9324 190.072 46.8585C190.072 49.0252 190.01 51.5651 189.824 53.8058C187.212 53.8058 183.353 53.7301 180.491 53.7301C180.491 54.4042 180.429 55.8951 180.429 60.0033C180.429 63.0659 180.429 65.9808 180.429 69.3444C180.429 71.4372 181.923 72.7063 183.293 72.7063C185.78 72.7063 188.145 72.1835 190.073 71.5833C190.385 73.6022 190.634 75.9185 190.759 77.86C186.464 79.8771 181.923 80.5495 177.318 80.5495C175.638 80.5495 174.083 80.025 172.464 78.3106Z" fill="white"/>
<path d="M211.229 46.1826C213.471 46.1826 216.644 46.9307 218.137 47.9744C218.137 50.289 216.207 55.5202 214.964 56.344C214.155 55.969 210.982 54.1033 208.491 54.1033C207.121 54.1033 205.942 54.6261 205.007 56.4179C204.074 58.3611 203.763 60.6018 203.763 63.9619C203.763 67.5491 204.571 69.5662 205.693 71.1345C206.748 72.6289 208.615 72.9281 209.863 72.9281C212.35 72.9281 215.212 71.8086 217.079 70.911C217.515 72.8542 218.014 75.0931 218.261 76.8884C214.218 79.5022 209.302 80.5495 206.752 80.5495C199.099 80.5495 193.25 74.8713 193.25 65.6816C193.248 55.0714 200.217 46.1826 211.229 46.1826Z" fill="white"/>
<path d="M225.231 76.9624C222.367 74.0493 220.626 70.0133 220.626 64.2611C220.626 58.3593 222.804 53.056 226.537 49.7698C229.275 47.3056 233.01 46.1826 236.742 46.1826C240.039 46.1826 242.84 47.0803 245.266 48.8721C248.439 51.3381 250.866 56.0447 250.866 62.6946C250.866 69.267 247.878 74.8731 244.209 77.7087C241.782 79.5779 238.671 80.5495 235.124 80.5495C231.45 80.5495 227.718 79.5022 225.231 76.9624ZM238.609 72.9281C239.79 70.9866 240.102 67.9979 240.102 62.992C240.102 58.435 239.602 56.1187 238.982 54.3251C238.296 52.755 237.177 52.0105 236.058 52.0105C234.937 52.0105 233.942 52.5332 233.132 53.8798C232.136 55.6716 231.517 58.5107 231.517 63.066C231.517 68.5964 232.077 71.1363 232.945 72.7063C233.756 74.2007 234.688 74.7234 235.809 74.7234C236.866 74.7217 237.861 74.3468 238.609 72.9281Z" fill="white"/>
<path d="M254.35 54.5521C254.35 52.535 254.41 50.2168 254.474 48.1997C257.834 47.9022 267.914 46.1826 268.414 46.1826C268.536 46.1826 268.536 46.2565 268.536 46.4061C268.474 54.4746 268.349 65.9807 268.349 73.4508L271.772 73.6022C271.772 75.6932 271.772 77.7843 271.772 79.8014C269.409 79.8014 265.861 79.8014 263.187 79.8014C260.572 79.8014 257.274 79.8754 254.725 79.8754C254.725 77.8582 254.725 75.6176 254.785 73.6779L258.083 73.5265C258.269 73.4508 258.331 73.303 258.331 73.1534V54.7739L254.35 54.5521ZM268.349 35.0514C268.349 39.0857 265.612 41.7752 262.503 41.7752C259.825 41.7752 257.088 39.0117 257.088 35.2028C257.088 32.0644 259.39 29 262.812 29C266.42 28.9982 268.349 31.9131 268.349 35.0514Z" fill="white"/>
<path d="M274.573 54.552C274.573 52.4592 274.631 50.2907 274.631 48.4249C277.744 48.1275 286.952 46.2582 287.328 46.2582C287.45 46.2582 287.45 46.3339 287.45 46.4078C287.76 47.9761 288.011 49.5461 288.322 51.1144L288.633 51.1884C294.668 46.707 296.038 46.1843 298.898 46.1843C301.574 46.1843 304.125 49.0234 305.369 51.5633C306.554 53.8796 306.803 56.196 306.803 58.2114C306.803 62.4692 306.615 68.6702 306.554 73.4507L309.665 73.6021C309.665 75.6192 309.665 77.8599 309.603 79.8014C307.239 79.8014 304.192 79.8014 301.574 79.8014C298.898 79.8014 295.976 79.8753 293.798 79.8753C293.798 77.8582 293.798 75.6175 293.86 73.6778L296.349 73.5264C296.473 73.4507 296.536 73.3768 296.598 73.1533C296.658 70.1645 296.598 65.9807 296.598 63.0659C296.536 59.63 296.536 57.8365 296.098 56.7188C295.477 55.2966 294.668 55.073 293.734 55.073C292.366 55.073 290.25 56.2699 288.757 57.6868C288.693 62.0203 288.569 69.1929 288.569 73.4507L291.247 73.6778C291.247 75.6949 291.247 77.8599 291.184 79.8014C289.006 79.8014 285.896 79.8014 283.407 79.8014C280.793 79.8014 277.62 79.8753 275.193 79.8753C275.193 77.8582 275.193 75.6175 275.257 73.6778L278.303 73.5264C278.49 73.4507 278.553 73.3029 278.553 73.1533V54.6999L274.573 54.552Z" fill="white"/>
<path d="M349.549 37.8166C347.869 43.2696 345.755 50.3665 343.701 56.4179C341.334 63.5905 338.473 72.7785 335.796 80.3982C335.176 80.5495 331.815 80.5496 327.084 80.5496C324.658 72.7046 321.92 63.6644 319.866 55.8934C318.372 50.1412 316.633 43.7167 315.199 38.0384C315.199 37.8906 315.077 37.741 314.892 37.741L311.842 37.5913C311.842 35.5003 311.903 33.2579 311.903 31.2407C314.206 31.2407 317.628 31.2407 320.304 31.2407C324.038 31.2407 328.455 31.2407 331.752 31.2407C331.752 33.1839 331.752 35.5742 331.69 37.5913L327.457 37.8149C328.08 41.0254 329.45 48.4215 330.007 50.9632C331.128 56.0447 332.249 61.4959 333.68 67.4752H334.115C335.363 62.8424 336.295 59.0317 337.165 55.5202C338.16 51.412 340.649 41.9248 341.207 38.188C341.207 38.0384 341.146 37.8166 341.022 37.8166L337.414 37.667C337.35 35.5742 337.414 33.1857 337.414 31.2407C340.088 31.2407 343.511 31.2407 346.746 31.2407C348.736 31.2407 350.976 31.2407 352.842 31.2407C352.842 33.2579 352.842 35.5003 352.782 37.5913L349.549 37.8166Z" fill="white"/>
<path d="M356.206 73.6778L359.503 73.4508C359.628 73.4508 359.752 73.3029 359.752 73.0776L359.816 37.8165L356.144 37.593C356.144 35.6498 356.204 33.4091 356.268 31.392C359.377 31.3181 365.538 31.1685 369.084 31.1685C375.12 31.1685 379.6 31.1685 383.211 33.1117C386.009 34.68 388.498 38.5646 388.498 42.3753C388.498 47.4569 385.263 51.4155 381.281 53.2073V53.8057C386.506 54.8513 390.674 59.6318 390.674 65.9085C390.674 73.7535 384.267 79.8788 373.567 79.8788C371.573 79.8788 366.1 79.8049 364.854 79.8049C362.738 79.8049 358.57 79.8049 356.143 79.8049C356.146 77.8599 356.146 75.6175 356.206 73.6778ZM369.959 71.9564C369.959 73.6021 371.263 73.9735 372.695 73.9735C376.678 73.9735 379.725 71.3615 379.725 66.3538C379.725 62.1682 376.738 58.1357 371.701 58.1357C371.078 58.1357 370.206 58.1357 370.081 58.2096L369.959 71.9564ZM370.082 52.0861C370.268 52.16 371.203 52.16 371.638 52.16C375.559 52.16 378.359 49.1713 378.359 44.5386C378.359 40.5782 375.808 36.991 372.263 36.991C371.203 36.991 370.581 37.0667 370.146 37.2146L370.082 52.0861Z" fill="white"/>
<path d="M344.262 34.4758H363.029" stroke="white" stroke-width="5" stroke-miterlimit="10"/>
<path d="M375.36 103.422C375.36 103.056 375.303 102.731 375.189 102.446C375.084 102.161 374.892 101.901 374.616 101.665C374.339 101.429 373.948 101.201 373.444 100.981C372.947 100.753 372.313 100.521 371.54 100.285C370.693 100.025 369.912 99.7358 369.196 99.4185C368.488 99.0929 367.869 98.7186 367.34 98.2954C366.811 97.8641 366.4 97.3717 366.107 96.8184C365.814 96.2568 365.668 95.6099 365.668 94.8774C365.668 94.1532 365.819 93.494 366.12 92.8999C366.429 92.3058 366.864 91.7931 367.426 91.3618C367.995 90.9224 368.667 90.5846 369.44 90.3486C370.213 90.1045 371.068 89.9824 372.003 89.9824C373.322 89.9824 374.457 90.2266 375.409 90.7148C376.369 91.2031 377.106 91.8582 377.619 92.6802C378.139 93.5021 378.4 94.4095 378.4 95.4023H375.36C375.36 94.8164 375.234 94.2996 374.982 93.8521C374.738 93.3963 374.363 93.0382 373.859 92.7778C373.362 92.5174 372.732 92.3872 371.967 92.3872C371.243 92.3872 370.64 92.4971 370.16 92.7168C369.68 92.9365 369.322 93.2336 369.086 93.6079C368.85 93.9823 368.732 94.4054 368.732 94.8774C368.732 95.2111 368.809 95.5163 368.964 95.793C369.118 96.0615 369.354 96.3138 369.672 96.5498C369.989 96.7777 370.388 96.9933 370.868 97.1968C371.348 97.4002 371.914 97.5955 372.565 97.7827C373.55 98.0757 374.408 98.4012 375.141 98.7593C375.873 99.1092 376.483 99.508 376.972 99.9556C377.46 100.403 377.826 100.912 378.07 101.481C378.314 102.043 378.437 102.682 378.437 103.398C378.437 104.147 378.286 104.822 377.985 105.424C377.684 106.018 377.252 106.527 376.691 106.95C376.138 107.365 375.47 107.687 374.689 107.915C373.916 108.134 373.053 108.244 372.101 108.244C371.247 108.244 370.404 108.13 369.574 107.902C368.752 107.674 368.004 107.329 367.328 106.865C366.653 106.393 366.116 105.807 365.717 105.107C365.318 104.399 365.119 103.573 365.119 102.629H368.183C368.183 103.207 368.28 103.699 368.476 104.106C368.679 104.513 368.96 104.847 369.318 105.107C369.676 105.359 370.091 105.546 370.563 105.668C371.043 105.791 371.556 105.852 372.101 105.852C372.817 105.852 373.415 105.75 373.896 105.546C374.384 105.343 374.75 105.058 374.994 104.692C375.238 104.326 375.36 103.903 375.36 103.422Z" fill="#E2E2EA"/>
<path d="M362.946 98.625V99.6016C362.946 100.944 362.771 102.149 362.421 103.215C362.071 104.281 361.57 105.188 360.919 105.937C360.277 106.686 359.503 107.259 358.6 107.658C357.697 108.049 356.696 108.244 355.597 108.244C354.507 108.244 353.51 108.049 352.606 107.658C351.711 107.259 350.934 106.686 350.275 105.937C349.616 105.188 349.103 104.281 348.737 103.215C348.379 102.149 348.2 100.944 348.2 99.6016V98.625C348.2 97.2822 348.379 96.0819 348.737 95.0239C349.095 93.9578 349.599 93.0505 350.25 92.3018C350.91 91.5449 351.687 90.9712 352.582 90.5806C353.485 90.1818 354.482 89.9824 355.573 89.9824C356.671 89.9824 357.672 90.1818 358.576 90.5806C359.479 90.9712 360.256 91.5449 360.907 92.3018C361.558 93.0505 362.059 93.9578 362.409 95.0239C362.767 96.0819 362.946 97.2822 362.946 98.625ZM359.882 99.6016V98.6006C359.882 97.6077 359.784 96.7329 359.589 95.9761C359.402 95.2111 359.121 94.5723 358.747 94.0596C358.38 93.5387 357.929 93.1481 357.392 92.8877C356.854 92.6191 356.248 92.4849 355.573 92.4849C354.897 92.4849 354.295 92.6191 353.766 92.8877C353.237 93.1481 352.785 93.5387 352.411 94.0596C352.045 94.5723 351.764 95.2111 351.569 95.9761C351.374 96.7329 351.276 97.6077 351.276 98.6006V99.6016C351.276 100.594 351.374 101.473 351.569 102.238C351.764 103.003 352.049 103.65 352.423 104.179C352.806 104.7 353.262 105.095 353.791 105.363C354.319 105.624 354.922 105.754 355.597 105.754C356.281 105.754 356.887 105.624 357.416 105.363C357.945 105.095 358.393 104.7 358.759 104.179C359.125 103.65 359.402 103.003 359.589 102.238C359.784 101.473 359.882 100.594 359.882 99.6016Z" fill="#E2E2EA"/>
<path d="M339.557 101.372H334.931V98.9424H339.557C340.363 98.9424 341.014 98.8122 341.51 98.5518C342.007 98.2913 342.369 97.9333 342.597 97.4775C342.833 97.0137 342.951 96.4847 342.951 95.8906C342.951 95.3291 342.833 94.8042 342.597 94.3159C342.369 93.8195 342.007 93.4207 341.51 93.1196C341.014 92.8185 340.363 92.668 339.557 92.668H335.871V108H332.807V90.2266H339.557C340.932 90.2266 342.1 90.4707 343.061 90.959C344.029 91.4391 344.765 92.1064 345.27 92.9609C345.775 93.8073 346.027 94.7757 346.027 95.8662C346.027 97.0137 345.775 97.9984 345.27 98.8203C344.765 99.6423 344.029 100.273 343.061 100.712C342.1 101.152 340.932 101.372 339.557 101.372Z" fill="#E2E2EA"/>
<defs>
<linearGradient id="paint0_linear_233_675" x1="8.00088" y1="54.9482" x2="97.8958" y2="54.9482" gradientUnits="userSpaceOnUse">
<stop stop-color="#F5CF32"/>
<stop offset="1" stop-color="#F2AA34"/>
</linearGradient>
</defs>
</svg>
